<?xml version="1.0" standalone="no"?>
<!DOCTYPE svg PUBLIC "-//W3C//DTD SVG 20010904//EN"
 "http://www.w3.org/TR/2001/REC-SVG-20010904/DTD/svg10.dtd">
<svg version="1.0" xmlns="http://www.w3.org/2000/svg"
 width="1875.000000pt" height="448.000000pt" viewBox="0 0 1875.000000 448.000000"
 preserveAspectRatio="xMidYMid meet">

<g transform="translate(0.000000,448.000000) scale(0.100000,-0.100000)"
fill="#000000" stroke="none">
<path d="M1971 4469 c-272 -53 -481 -249 -521 -489 -13 -74 -6 -157 65 -871
19 -190 35 -356 35 -367 0 -21 -5 -22 -87 -22 -103 0 -156 -20 -216 -78 -52
-50 -78 -104 -84 -171 -2 -31 18 -301 46 -601 73 -777 69 -747 93 -802 25 -59
102 -131 161 -151 l42 -14 5 -67 c4 -61 8 -71 38 -97 20 -18 43 -29 61 -29 35
0 31 19 71 -320 17 -140 34 -266 37 -280 23 -96 111 -138 190 -90 56 34 55 32
102 424 17 136 32 251 35 253 3 3 462 6 1021 7 1008 1 1016 1 1020 -19 3 -11
14 -103 26 -205 46 -410 54 -440 114 -466 99 -41 173 13 189 136 3 25 19 157
36 294 17 137 33 253 36 258 3 4 19 8 35 8 75 0 119 55 119 149 0 46 2 50 29
56 78 17 166 105 190 190 14 49 123 1244 122 1339 -1 115 -56 202 -161 253
-23 11 -70 19 -135 23 -99 5 -100 5 -97 30 1 14 27 259 57 546 30 286 55 554
55 595 0 156 -52 275 -174 394 -91 91 -181 142 -307 174 -71 19 -118 20 -1139
19 -586 0 -1085 -4 -1109 -9z m2214 -71 c190 -49 326 -152 402 -305 55 -112
55 -148 -11 -778 -31 -291 -58 -544 -61 -561 -5 -31 -7 -31 -73 -37 -151 -12
-321 -81 -439 -177 l-63 -51 -77 25 c-476 149 -1069 158 -1544 21 l-127 -37
-62 50 c-113 91 -280 158 -423 169 -68 5 -78 9 -82 27 -2 12 -23 208 -45 436
-23 228 -48 485 -57 570 -18 180 -12 244 35 343 77 163 268 293 465 316 40 5
529 8 1087 7 879 -2 1023 -4 1075 -18z m-2373 -1767 c217 -56 400 -206 497
-405 45 -94 67 -177 79 -296 5 -47 16 -99 25 -115 20 -39 65 -81 100 -94 19
-7 210 -11 566 -11 l537 0 46 29 c61 39 84 90 98 215 31 284 193 516 440 629
113 52 187 67 355 74 190 7 242 -5 303 -71 72 -78 71 -48 3 -800 -59 -646 -62
-671 -87 -713 -14 -24 -44 -56 -66 -71 l-42 -27 -1175 -5 c-647 -3 -1365 -3
-1597 0 l-421 5 -41 29 c-27 19 -50 46 -66 80 -22 47 -28 101 -80 681 -31 347
-56 653 -56 681 0 93 70 181 161 205 61 15 335 3 421 -20z m1635 -72 c121 -18
439 -91 451 -104 2 -2 -17 -33 -42 -67 -92 -123 -146 -269 -165 -442 -10 -99
-26 -130 -82 -158 -31 -16 -78 -18 -537 -18 -450 0 -508 2 -539 17 -50 23 -70
63 -78 152 -16 185 -91 372 -193 484 -16 17 -22 31 -16 36 30 31 374 103 571
121 154 14 472 3 630 -21z m1133 -1704 c0 -32 -6 -51 -20 -65 -20 -20 -33 -20
-1487 -20 -1657 0 -1503 -8 -1503 82 l0 48 1505 0 1505 0 0 -45z m-2603 -159
c1 0 -7 -71 -18 -156 -10 -85 -26 -218 -36 -295 -14 -119 -20 -143 -39 -162
-28 -28 -54 -29 -83 -5 -23 18 -19 -3 -71 412 -11 85 -20 170 -20 189 l0 34
133 -8 c72 -4 133 -8 134 -9z m2438 -28 c-6 -44 -22 -181 -52 -421 -12 -103
-21 -145 -35 -163 -23 -28 -57 -31 -87 -6 -19 15 -24 40 -42 182 -11 91 -28
227 -38 303 -9 76 -15 140 -12 142 2 3 65 5 138 5 l134 0 -6 -42z"/>
<path d="M1534 1155 c-3 -8 -4 -18 -1 -22 3 -4 696 -7 1541 -5 1527 2 1536 2
1536 22 0 20 -8 20 -1535 20 -1333 0 -1536 -2 -1541 -15z"/>
<path d="M16970 2250 l0 -1410 94 0 95 0 4 602 c3 583 4 606 26 688 70 267
240 442 500 512 103 28 326 30 421 5 221 -59 362 -202 422 -428 21 -81 22
-103 25 -732 l4 -647 95 0 95 0 -4 662 c-4 714 -5 719 -60 870 -68 187 -209
331 -397 406 -239 95 -588 75 -810 -45 -125 -68 -237 -176 -298 -288 -16 -28
-17 5 -20 593 l-2 622 -95 0 -95 0 0 -1410z"/>
<path d="M14633 3590 c-17 -12 -42 -41 -54 -66 -50 -105 19 -214 137 -214 58
0 105 25 135 72 16 26 19 45 16 91 -3 51 -8 62 -40 95 -33 33 -42 36 -99 39
-51 3 -69 0 -95 -17z"/>
<path d="M6700 2170 l0 -1330 100 0 100 0 0 585 0 585 705 0 705 0 0 90 0 90
-705 0 -705 0 0 570 0 570 790 0 790 0 0 85 0 85 -890 0 -890 0 0 -1330z"/>
<path d="M11838 2829 c-260 -38 -458 -165 -564 -361 l-34 -63 0 208 0 207 -95
0 -95 0 0 -990 0 -990 95 0 95 0 0 533 c0 663 8 749 84 912 107 230 313 361
578 368 l88 2 0 93 0 92 -47 -1 c-27 -1 -74 -5 -105 -10z"/>
<path d="M13106 2830 c-199 -32 -351 -105 -477 -230 -48 -47 -100 -110 -118
-140 l-31 -55 0 208 0 207 -95 0 -95 0 0 -990 0 -990 94 0 95 0 4 603 c3 582
4 605 26 687 70 267 240 442 500 512 103 28 326 30 421 5 221 -59 362 -202
422 -428 21 -81 22 -103 25 -731 l4 -648 95 0 95 0 -4 663 c-4 713 -5 718 -60
869 -83 227 -265 383 -517 443 -79 19 -303 27 -384 15z"/>
<path d="M15780 2834 c-14 -2 -56 -9 -94 -15 -350 -57 -560 -301 -518 -602 16
-113 56 -191 133 -261 112 -101 239 -147 614 -221 207 -41 313 -69 370 -97
136 -69 190 -149 189 -280 0 -65 -5 -86 -33 -142 -51 -104 -132 -160 -288
-198 -117 -28 -356 -31 -486 -5 -164 33 -352 112 -449 189 -21 17 -40 29 -42
27 -2 -2 -22 -37 -45 -77 l-42 -73 23 -20 c110 -94 348 -187 558 -219 107 -16
358 -14 460 4 213 38 390 141 472 276 76 126 86 325 22 457 -35 72 -140 168
-229 209 -86 39 -171 63 -396 109 -350 72 -465 111 -555 189 -62 53 -87 114
-88 212 -1 74 2 87 34 150 76 149 248 224 516 224 191 0 406 -55 539 -139 l64
-40 42 76 c48 87 50 82 -51 137 -78 42 -217 89 -332 111 -79 16 -335 28 -388
19z"/>
<path d="M8722 2148 c4 -664 4 -674 27 -758 39 -147 93 -243 191 -341 72 -73
101 -94 182 -133 128 -62 240 -86 414 -87 150 0 223 10 334 50 154 54 286 158
375 295 l50 77 3 -206 2 -205 90 0 90 0 0 990 0 990 -94 0 -95 0 -3 -607 c-4
-590 -4 -610 -26 -688 -58 -210 -184 -372 -352 -453 -108 -52 -208 -72 -352
-72 -211 0 -350 50 -468 168 -76 76 -120 154 -153 271 -21 73 -21 97 -25 729
l-3 652 -95 0 -95 0 3 -672z"/>
<path d="M14620 1830 l0 -990 95 0 95 0 0 990 0 990 -95 0 -95 0 0 -990z"/>
</g>
</svg>
